<svg width="42" height="42" viewBox="0 0 42 42" fill="none" xmlns="http://www.w3.org/2000/svg">
<path d="M17.2206 19.3H11.9206C10.6606 19.3 9.64062 20.32 9.64062 21.58V31.8199H17.2206V19.3V19.3Z" fill="#82AFFF"/>
<path d="M22.5231 10.2H19.4831C18.2231 10.2 17.2031 11.22 17.2031 12.48V31.8H24.7831V12.48C24.7831 11.22 23.7831 10.2 22.5231 10.2Z" fill="#005FF2"/>
<path d="M30.0969 22.7H24.7969V31.8H32.3769V24.98C32.3569 23.72 31.3369 22.7 30.0969 22.7Z" fill="#82AFFF"/>
<path d="M15 41H27C37 41 41 37 41 27V15C41 5 37 1 27 1H15C5 1 1 5 1 15V27C1 37 5 41 15 41Z" stroke="#292D32" stroke-width="1.5" stroke-linecap="round" stroke-linejoin="round"/>
</svg>
